  0
SECTION
  2
HEADER
  9
$ACADVER
  1
AC1006
  9
$EXTMIN
 10
0.000000
 20
0.000000
 30
0.000000
  9
$EXTMAX
 10
1297.000000
 20
217.000000
 30
0.000000
  0
ENDSEC
  0
SECTION
  2
ENTITIES
  0
POLYLINE
  8
0
 66
1
 70
1
  0
VERTEX
  8
0
 10
19.454545
 20
191.545455
 42
0.000000
  0
VERTEX
  8
0
 10
17.000000
 20
189.090909
 42
0.000000
  0
VERTEX
  8
0
 10
17.000000
 20
143.000000
 42
0.000000
  0
VERTEX
  8
0
 10
17.000000
 20
96.909091
 42
0.000000
  0
VERTEX
  8
0
 10
19.454545
 20
94.454545
 42
0.000000
  0
VERTEX
  8
0
 10
21.909091
 20
92.000000
 42
0.000000
  0
VERTEX
  8
0
 10
76.398782
 20
92.000000
 42
0.000000
  0
VERTEX
  8
0
 10
130.888473
 20
92.000000
 42
0.000000
  0
VERTEX
  8
0
 10
133.694219
 20
94.413401
 42
0.051470
  0
VERTEX
  8
0
 10
135.280938
 20
96.090941
 42
0.094059
  0
VERTEX
  8
0
 10
136.126353
 20
97.766987
 42
0.052315
  0
VERTEX
  8
0
 10
136.563635
 20
100.239193
 42
0.007372
  0
VERTEX
  8
0
 10
136.852598
 20
105.413401
 42
0.000000
  0
VERTEX
  8
0
 10
137.205232
 20
114.000000
 42
0.000000
  0
VERTEX
  8
0
 10
89.102616
 20
114.000000
 42
0.000000
  0
VERTEX
  8
0
 10
41.000000
 20
114.000000
 42
0.000000
  0
VERTEX
  8
0
 10
41.000000
 20
123.500000
 42
0.000000
  0
VERTEX
  8
0
 10
41.000000
 20
133.000000
 42
0.000000
  0
VERTEX
  8
0
 10
74.500000
 20
133.000000
 42
0.000000
  0
VERTEX
  8
0
 10
108.000000
 20
133.000000
 42
0.000000
  0
VERTEX
  8
0
 10
108.000000
 20
143.000000
 42
0.000000
  0
VERTEX
  8
0
 10
108.000000
 20
153.000000
 42
0.000000
  0
VERTEX
  8
0
 10
74.500000
 20
153.000000
 42
0.000000
  0
VERTEX
  8
0
 10
41.000000
 20
153.000000
 42
0.000000
  0
VERTEX
  8
0
 10
41.000000
 20
162.000000
 42
0.000000
  0
VERTEX
  8
0
 10
41.000000
 20
171.000000
 42
0.000000
  0
VERTEX
  8
0
 10
89.099498
 20
171.000000
 42
0.000000
  0
VERTEX
  8
0
 10
137.198996
 20
171.000000
 42
0.000000
  0
VERTEX
  8
0
 10
136.849498
 20
180.087252
 42
0.006561
  0
VERTEX
  8
0
 10
136.563528
 20
185.628312
 42
0.050817
  0
VERTEX
  8
0
 10
136.134967
 20
188.182588
 42
0.095695
  0
VERTEX
  8
0
 10
135.292866
 20
189.888300
 42
0.052841
  0
VERTEX
  8
0
 10
133.694236
 20
191.587252
 42
0.000000
  0
VERTEX
  8
0
 10
130.888473
 20
194.000000
 42
0.000000
  0
VERTEX
  8
0
 10
76.398782
 20
194.000000
 42
0.000000
  0
VERTEX
  8
0
 10
21.909091
 20
194.000000
 42
0.000000
  0
SEQEND
  0
POLYLINE
  8
0
 66
1
 70
1
  0
VERTEX
  8
0
 10
160.101717
 20
190.250000
 42
-0.000435
  0
VERTEX
  8
0
 10
162.248577
 20
187.950780
 42
-0.000053
  0
VERTEX
  8
0
 10
166.953992
 20
182.901563
 42
-0.000063
  0
VERTEX
  8
0
 10
172.543373
 20
176.901008
 42
-0.000052
  0
VERTEX
  8
0
 10
178.503030
 20
170.500000
 42
0.000483
  0
VERTEX
  8
0
 10
184.600856
 20
163.961894
 42
0.000508
  0
VERTEX
  8
0
 10
190.606993
 20
157.547631
 42
0.000486
  0
VERTEX
  8
0
 10
195.798335
 20
152.025568
 42
0.002293
  0
VERTEX
  8
0
 10
198.793451
 20
148.874914
 42
0.000000
  0
VERTEX
  8
0
 10
204.190172
 20
143.249828
 42
0.000000
  0
VERTEX
  8
0
 10
180.595086
 20
118.185183
 42
0.001045
  0
VERTEX
  8
0
 10
171.548561
 20
108.534898
 42
0.001712
  0
VERTEX
  8
0
 10
163.931056
 20
100.318698
 42
0.000172
  0
VERTEX
  8
0
 10
157.152826
 20
92.952257
 42
0.188044
  0
VERTEX
  8
0
 10
157.000000
 20
92.560269
 42
0.403475
  0
VERTEX
  8
0
 10
157.219961
 20
92.332060
 42
0.001044
  0
VERTEX
  8
0
 10
162.042403
 20
92.164579
 42
0.005098
  0
VERTEX
  8
0
 10
167.583519
 20
92.040265
 42
0.003059
  0
VERTEX
  8
0
 10
174.165628
 20
92.000000
 42
0.000000
  0
VERTEX
  8
0
 10
191.331257
 20
92.000000
 42
0.000000
  0
VERTEX
  8
0
 10
206.779035
 20
108.002758
 42
0.000000
  0
VERTEX
  8
0
 10
222.226814
 20
124.005515
 42
0.000000
  0
VERTEX
  8
0
 10
237.863407
 20
107.976360
 42
0.000000
  0
VERTEX
  8
0
 10
253.500000
 20
91.947205
 42
0.000000
  0
VERTEX
  8
0
 10
270.962408
 20
91.973602
 42
0.000000
  0
VERTEX
  8
0
 10
288.424816
 20
92.000000
 42
0.000000
  0
VERTEX
  8
0
 10
283.879911
 20
96.750000
 42
-0.001810
  0
VERTEX
  8
0
 10
280.773198
 20
100.020527
 42
-0.000090
  0
VERTEX
  8
0
 10
270.586240
 20
110.826562
 42
-0.000145
  0
VERTEX
  8
0
 10
258.487996
 20
123.672087
 42
-0.000105
  0
VERTEX
  8
0
 10
245.007071
 20
138.000000
 42
0.000530
  0
VERTEX
  8
0
 10
231.162478
 20
152.689339
 42
0.000615
  0
VERTEX
  8
0
 10
217.951543
 20
166.642187
 42
0.000547
  0
VERTEX
  8
0
 10
206.738405
 20
178.430054
 42
0.003653
  0
VERTEX
  8
0
 10
201.108330
 20
184.250000
 42
0.000000
  0
VERTEX
  8
0
 10
191.537523
 20
194.000000
 42
0.000000
  0
VERTEX
  8
0
 10
174.065814
 20
194.000000
 42
0.000000
  0
VERTEX
  8
0
 10
156.594104
 20
194.000000
 42
0.000000
  0
SEQEND
  0
POLYLINE
  8
0
 66
1
 70
1
  0
VERTEX
  8
0
 10
240.670274
 20
181.095785
 42
0.003197
  0
VERTEX
  8
0
 10
235.815902
 20
176.088132
 42
0.005080
  0
VERTEX
  8
0
 10
231.732412
 20
171.733734
 42
0.001410
  0
VERTEX
  8
0
 10
228.241215
 20
167.912722
 42
0.197463
  0
VERTEX
  8
0
 10
228.035810
 20
167.345785
 42
0.166876
  0
VERTEX
  8
0
 10
228.254035
 20
166.788152
 42
0.002376
  0
VERTEX
  8
0
 10
230.620895
 20
164.025983
 42
0.006283
  0
VERTEX
  8
0
 10
233.443296
 20
160.845351
 42
0.004063
  0
VERTEX
  8
0
 10
236.785810
 20
157.232029
 42
0.000000
  0
VERTEX
  8
0
 10
245.500000
 20
147.964058
 42
0.000000
  0
VERTEX
  8
0
 10
260.500000
 20
164.146265
 42
-0.000021
  0
VERTEX
  8
0
 10
266.708047
 20
170.843017
 42
-0.000021
  0
VERTEX
  8
0
 10
272.957192
 20
177.582954
 42
-0.000021
  0
VERTEX
  8
0
 10
278.439389
 20
183.494721
 42
-0.000080
  0
VERTEX
  8
0
 10
281.843634
 20
187.164236
 42
0.000000
  0
VERTEX
  8
0
 10
288.187268
 20
194.000000
 42
0.000000
  0
VERTEX
  8
0
 10
270.763908
 20
194.000000
 42
0.000000
  0
VERTEX
  8
0
 10
253.340549
 20
194.000000
 42
0.000000
  0
SEQEND
  0
POLYLINE
  8
0
 66
1
 70
1
  0
VERTEX
  8
0
 10
325.500000
 20
192.595823
 42
0.063893
  0
VERTEX
  8
0
 10
314.151438
 20
187.320440
 42
0.067076
  0
VERTEX
  8
0
 10
304.709531
 20
179.420768
 42
0.068362
  0
VERTEX
  8
0
 10
297.835941
 20
169.451637
 42
0.070772
  0
VERTEX
  8
0
 10
294.005280
 20
158.113510
 42
0.033380
  0
VERTEX
  8
0
 10
293.260436
 20
151.818293
 42
0.012779
  0
VERTEX
  8
0
 10
293.035643
 20
142.997373
 42
0.012754
  0
VERTEX
  8
0
 10
293.261017
 20
134.190689
 42
0.034095
  0
VERTEX
  8
0
 10
294.007652
 20
127.959652
 42
0.065481
  0
VERTEX
  8
0
 10
297.765646
 20
116.550651
 42
0.068031
  0
VERTEX
  8
0
 10
304.311734
 20
106.663602
 42
0.068659
  0
VERTEX
  8
0
 10
313.210031
 20
98.968511
 42
0.068760
  0
VERTEX
  8
0
 10
323.855335
 20
93.975017
 42
0.031737
  0
VERTEX
  8
0
 10
328.181805
 20
92.926104
 42
0.026051
  0
VERTEX
  8
0
 10
332.902197
 20
92.345861
 42
0.014717
  0
VERTEX
  8
0
 10
339.671326
 20
92.069622
 42
0.002838
  0
VERTEX
  8
0
 10
351.935806
 20
92.000000
 42
0.000000
  0
VERTEX
  8
0
 10
373.660941
 20
92.000000
 42
0.000000
  0
VERTEX
  8
0
 10
382.316761
 20
102.882486
 42
0.002953
  0
VERTEX
  8
0
 10
385.671180
 20
107.151320
 42
0.004258
  0
VERTEX
  8
0
 10
388.583742
 20
110.969949
 42
0.002278
  0
VERTEX
  8
0
 10
391.002943
 20
114.229223
 42
0.067176
  0
VERTEX
  8
0
 10
391.496184
 20
115.132486
 42
0.495084
  0
VERTEX
  8
0
 10
391.019455
 20
115.903552
 42
0.012724
  0
VERTEX
  8
0
 10
386.326563
 20
116.242911
 42
0.010198
  0
VERTEX
  8
0
 10
378.390584
 20
116.452027
 42
0.001487
  0
VERTEX
  8
0
 10
362.259894
 20
116.500000
 42
-0.001320
  0
VERTEX
  8
0
 10
343.730502
 20
116.548927
 42
-0.014131
  0
VERTEX
  8
0
 10
336.213458
 20
116.801152
 42
-0.036276
  0
VERTEX
  8
0
 10
331.840472
 20
117.392091
 42
-0.068723
  0
VERTEX
  8
0
 10
328.500000
 20
118.589059
 42
-0.041083
  0
VERTEX
  8
0
 10
326.751061
 20
119.693908
 42
-0.022448
  0
VERTEX
  8
0
 10
324.793750
 20
121.310765
 42
-0.022231
  0
VERTEX
  8
0
 10
322.940252
 20
123.143535
 42
-0.032786
  0
VERTEX
  8
0
 10
321.500000
 20
124.920869
 42
-0.034686
  0
VERTEX
  8
0
 10
319.748668
 20
127.802379
 42
-0.070008
  0
VERTEX
  8
0
 10
318.871836
 20
130.305080
 42
-0.038114
  0
VERTEX
  8
0
 10
318.447077
 20
133.798005
 42
-0.004533
  0
VERTEX
  8
0
 10
318.168121
 20
141.596947
 42
-0.005124
  0
VERTEX
  8
0
 10
318.048200
 20
148.891806
 42
-0.029245
  0
VERTEX
  8
0
 10
318.250672
 20
152.760829
 42
-0.049507
  0
VERTEX
  8
0
 10
318.856462
 20
155.607344
 42
-0.035569
  0
VERTEX
  8
0
 10
320.062231
 20
158.628553
 42
-0.034428
  0
VERTEX
  8
0
 10
321.328065
 20
160.841076
 42
-0.036856
  0
VERTEX
  8
0
 10
322.859947
 20
162.806043
 42
-0.036241
  0
VERTEX
  8
0
 10
324.688454
 20
164.552642
 42
-0.031227
  0
VERTEX
  8
0
 10
326.839891
 20
166.113416
 42
0.000000
  0
VERTEX
  8
0
 10
331.391561
 20
169.000000
 42
0.000000
  0
VERTEX
  8
0
 10
363.500000
 20
169.000000
 42
0.000000
  0
VERTEX
  8
0
 10
395.608439
 20
169.000000
 42
0.000000
  0
VERTEX
  8
0
 10
400.160109
 20
166.113416
 42
-0.064268
  0
VERTEX
  8
0
 10
404.300426
 20
162.671590
 42
-0.083043
  0
VERTEX
  8
0
 10
407.017833
 20
158.552722
 42
-0.070654
  0
VERTEX
  8
0
 10
408.520810
 20
153.254562
 42
-0.033849
  0
VERTEX
  8
0
 10
409.000000
 20
146.184276
 42
0.008598
  0
VERTEX
  8
0
 10
409.053914
 20
143.049214
 42
0.014370
  0
VERTEX
  8
0
 10
409.220312
 20
140.416877
 42
0.008043
  0
VERTEX
  8
0
 10
409.450508
 20
138.292839
 42
0.394940
  0
VERTEX
  8
0
 10
409.750000
 20
138.043392
 42
0.211472
  0
VERTEX
  8
0
 10
410.499173
 20
138.428287
 42
0.000489
  0
VERTEX
  8
0
 10
418.464460
 20
148.310148
 42
0.003341
  0
VERTEX
  8
0
 10
425.608779
 20
157.313801
 42
0.012687
  0
VERTEX
  8
0
 10
429.889780
 20
163.079210
 42
0.062178
  0
VERTEX
  8
0
 10
430.546230
 20
164.312497
 42
0.111909
  0
VERTEX
  8
0
 10
430.707649
 20
165.441217
 42
0.071358
  0
VERTEX
  8
0
 10
430.386121
 20
166.856984
 42
0.014324
  0
VERTEX
  8
0
 10
429.389780
 20
169.250588
 42
0.057350
  0
VERTEX
  8
0
 10
424.960638
 20
176.678925
 42
0.051007
  0
VERTEX
  8
0
 10
418.800766
 20
183.236221
 42
0.050405
  0
VERTEX
  8
0
 10
411.360663
 20
188.480550
 42
0.053040
  0
VERTEX
  8
0
 10
403.144665
 20
192.024983
 42
0.039180
  0
VERTEX
  8
0
 10
398.312096
 20
193.120790
 42
0.024254
  0
VERTEX
  8
0
 10
392.513954
 20
193.680097
 42
0.011032
  0
VERTEX
  8
0
 10
383.243434
 20
193.917507
 42
0.001382
  0
VERTEX
  8
0
 10
363.144665
 20
193.933104
 42
0.002027
  0
VERTEX
  8
0
 10
347.089189
 20
193.836094
 42
0.006353
  0
VERTEX
  8
0
 10
336.301829
 20
193.590073
 42
0.007137
  0
VERTEX
  8
0
 10
328.801595
 20
193.216380
 42
0.060941
  0
SEQEND
  0
POLYLINE
  8
0
 66
1
 70
1
  0
VERTEX
  8
0
 10
457.992450
 20
181.490638
 42
0.000000
  0
VERTEX
  8
0
 10
447.905249
 20
168.981275
 42
0.000000
  0
VERTEX
  8
0
 10
497.702624
 20
169.240638
 42
0.000000
  0
VERTEX
  8
0
 10
547.500000
 20
169.500000
 42
0.000000
  0
VERTEX
  8
0
 10
547.479491
 20
177.000000
 42
0.015142
  0
VERTEX
  8
0
 10
547.265721
 20
183.472531
 42
0.060885
  0
VERTEX
  8
0
 10
546.539411
 20
187.355436
 42
0.097323
  0
VERTEX
  8
0
 10
545.110442
 20
189.967595
 42
0.082348
  0
VERTEX
  8
0
 10
542.723163
 20
192.027281
 42
0.095179
  0
VERTEX
  8
0
 10
539.669800
 20
193.168751
 42
0.029368
  0
VERTEX
  8
0
 10
534.765609
 20
193.706670
 42
0.011573
  0
VERTEX
  8
0
 10
525.950921
 20
193.948121
 42
0.001034
  0
VERTEX
  8
0
 10
503.789826
 20
193.996262
 42
0.000000
  0
VERTEX
  8
0
 10
468.079652
 20
194.000000
 42
0.000000
  0
SEQEND
  0
POLYLINE
  8
0
 66
1
 70
1
  0
VERTEX
  8
0
 10
623.500000
 20
193.054643
 42
0.039898
  0
VERTEX
  8
0
 10
622.615052
 20
192.607072
 42
0.021734
  0
VERTEX
  8
0
 10
621.603714
 20
191.927784
 42
0.021528
  0
VERTEX
  8
0
 10
620.629454
 20
191.143204
 42
0.031810
  0
VERTEX
  8
0
 10
619.853070
 20
190.368030
 42
0.050565
  0
VERTEX
  8
0
 10
617.864116
 20
187.591050
 42
0.000109
  0
VERTEX
  8
0
 10
591.916576
 20
142.301564
 42
0.000143
  0
VERTEX
  8
0
 10
566.225010
 20
97.406530
 42
0.038288
  0
VERTEX
  8
0
 10
564.318527
 20
93.387685
 42
0.411756
  0
VERTEX
  8
0
 10
564.630776
 20
92.678575
 42
0.064664
  0
VERTEX
  8
0
 10
566.268435
 20
92.267977
 42
0.025392
  0
VERTEX
  8
0
 10
569.547912
 20
92.052083
 42
0.003816
  0
VERTEX
  8
0
 10
576.143011
 20
92.003738
 42
0.005398
  0
VERTEX
  8
0
 10
582.872534
 20
92.078428
 42
0.024801
  0
VERTEX
  8
0
 10
586.764058
 20
92.357094
 42
0.043144
  0
VERTEX
  8
0
 10
589.408868
 20
92.913393
 42
0.063597
  0
VERTEX
  8
0
 10
591.572515
 20
93.881105
 42
0.110469
  0
VERTEX
  8
0
 10
593.895392
 20
96.122925
 42
0.008012
  0
VERTEX
  8
0
 10
598.711784
 20
103.685637
 42
0.007311
  0
VERTEX
  8
0
 10
605.674484
 20
115.395595
 42
0.001679
  0
VERTEX
  8
0
 10
617.072515
 20
135.374049
 42
-0.000928
  0
VERTEX
  8
0
 10
625.707900
 20
150.563084
 42
-0.001536
  0
VERTEX
  8
0
 10
633.058801
 20
163.345756
 42
-0.000106
  0
VERTEX
  8
0
 10
639.694929
 20
174.798277
 42
-0.284731
  0
VERTEX
  8
0
 10
640.000000
 20
174.961247
 42
-0.248695
  0
VERTEX
  8
0
 10
640.299220
 20
174.777114
 42
-0.000559
  0
VERTEX
  8
0
 10
643.041717
 20
170.102098
 42
-0.003418
  0
VERTEX
  8
0
 10
646.107559
 20
164.779339
 42
-0.002095
  0
VERTEX
  8
0
 10
649.652653
 20
158.464565
 42
0.000000
  0
VERTEX
  8
0
 10
658.805307
 20
142.000000
 42
0.000000
  0
VERTEX
  8
0
 10
643.652653
 20
141.973516
 42
0.000000
  0
VERTEX
  8
0
 10
628.500000
 20
141.947033
 42
0.000000
  0
VERTEX
  8
0
 10
622.335448
 20
130.989185
 42
0.000000
  0
VERTEX
  8
0
 10
616.170896
 20
120.031337
 42
0.000000
  0
VERTEX
  8
0
 10
643.804235
 20
119.765669
 42
0.000000
  0
VERTEX
  8
0
 10
671.437574
 20
119.500000
 42
0.000000
  0
VERTEX
  8
0
 10
677.650426
 20
108.591089
 42
0.010544
  0
VERTEX
  8
0
 10
683.994436
 20
97.978670
 42
0.107922
  0
VERTEX
  8
0
 10
687.554624
 20
94.342883
 42
0.124140
  0
VERTEX
  8
0
 10
692.130930
 20
92.755547
 42
0.015659
  0
VERTEX
  8
0
 10
702.665965
 20
92.169803
 42
0.000000
  0
VERTEX
  8
0
 10
716.292186
 20
91.839606
 42
0.000000
  0
VERTEX
  8
0
 10
714.361475
 20
95.169803
 42
-0.002418
  0
VERTEX
  8
0
 10
712.940204
 20
97.648842
 42
-0.000043
  0
VERTEX
  8
0
 10
705.370579
 20
111.003994
 42
-0.000108
  0
VERTEX
  8
0
 10
696.555553
 20
126.567357
 42
-0.000072
  0
VERTEX
  8
0
 10
686.465382
 20
144.396986
 42
0.001462
  0
VERTEX
  8
0
 10
673.439028
 20
167.266413
 42
0.006152
  0
VERTEX
  8
0
 10
665.411447
 20
180.873794
 42
0.005770
  0
VERTEX
  8
0
 10
659.812483
 20
189.867392
 42
0.112980
  0
VERTEX
  8
0
 10
657.500000
 20
192.143248
 42
0.070214
  0
VERTEX
  8
0
 10
655.274701
 20
193.116290
 42
0.042552
  0
VERTEX
  8
0
 10
652.445513
 20
193.651493
 42
0.022433
  0
VERTEX
  8
0
 10
648.090894
 20
193.900197
 42
0.004076
  0
VERTEX
  8
0
 10
640.000000
 20
193.932876
 42
0.005178
  0
VERTEX
  8
0
 10
634.300070
 20
193.850395
 42
0.007088
  0
VERTEX
  8
0
 10
629.171875
 20
193.650290
 42
0.004815
  0
VERTEX
  8
0
 10
624.891306
 20
193.381089
 42
0.079178
  0
SEQEND
  0
POLYLINE
  8
0
 66
1
 70
1
  0
VERTEX
  8
0
 10
745.454545
 20
191.545455
 42
0.061362
  0
VERTEX
  8
0
 10
744.082918
 20
189.788411
 42
0.086807
  0
VERTEX
  8
0
 10
743.372172
 20
187.939933
 42
0.042987
  0
VERTEX
  8
0
 10
743.067050
 20
185.125108
 42
0.005514
  0
VERTEX
  8
0
 10
743.000000
 20
179.045455
 42
0.000000
  0
VERTEX
  8
0
 10
743.000000
 20
169.000000
 42
0.000000
  0
VERTEX
  8
0
 10
790.039838
 20
169.000000
 42
-0.000764
  0
VERTEX
  8
0
 10
819.224870
 20
168.955379
 42
-0.008679
  0
VERTEX
  8
0
 10
830.763232
 20
168.719797
 42
-0.021075
  0
VERTEX
  8
0
 10
837.157463
 20
168.207711
 42
-0.087645
  0
VERTEX
  8
0
 10
840.842777
 20
167.080209
 42
-0.063379
  0
VERTEX
  8
0
 10
843.639675
 20
165.173590
 42
-0.085660
  0
VERTEX
  8
0
 10
845.548548
 20
162.788639
 42
-0.079407
  0
VERTEX
  8
0
 10
846.639674
 20
159.758060
 42
-0.046811
  0
VERTEX
  8
0
 10
847.000000
 20
155.917764
 42
-0.060905
  0
VERTEX
  8
0
 10
846.590122
 20
152.565362
 42
-0.073845
  0
VERTEX
  8
0
 10
845.385062
 20
149.639915
 42
-0.073494
  0
VERTEX
  8
0
 10
843.376192
 20
147.180412
 42
-0.059585
  0
VERTEX
  8
0
 10
840.601500
 20
145.198888
 42
-0.102165
  0
VERTEX
  8
0
 10
837.374978
 20
144.209636
 42
-0.013572
  0
VERTEX
  8
0
 10
830.219465
 20
143.731405
 42
-0.007454
  0
VERTEX
  8
0
 10
817.824355
 20
143.425384
 42
-0.000880
  0
VERTEX
  8
0
 10
790.250000
 20
143.204329
 42
0.000000
  0
VERTEX
  8
0
 10
743.000000
 20
142.908658
 42
0.000000
  0
VERTEX
  8
0
 10
743.000000
 20
117.454329
 42
0.000000
  0
VERTEX
  8
0
 10
743.000000
 20
92.000000
 42
0.000000
  0
VERTEX
  8
0
 10
752.365141
 20
92.000000
 42
0.007471
  0
VERTEX
  8
0
 10
757.552319
 20
92.077508
 42
0.035301
  0
VERTEX
  8
0
 10
760.510391
 20
92.375664
 42
0.060486
  0
VERTEX
  8
0
 10
762.559709
 20
92.991341
 42
0.063546
  0
VERTEX
  8
0
 10
764.365141
 20
94.072580
 42
0.069562
  0
VERTEX
  8
0
 10
765.893898
 20
95.663806
 42
0.108858
  0
VERTEX
  8
0
 10
766.647014
 20
97.398405
 42
0.044405
  0
VERTEX
  8
0
 10
766.944125
 20
100.244904
 42
0.003813
  0
VERTEX
  8
0
 10
767.000000
 20
107.572580
 42
0.000000
  0
VERTEX
  8
0
 10
767.000000
 20
119.000000
 42
0.000000
  0
VERTEX
  8
0
 10
801.750000
 20
119.017364
 42
0.003778
  0
VERTEX
  8
0
 10
827.185264
 20
119.222270
 42
0.024989
  0
VERTEX
  8
0
 10
839.864939
 20
120.054991
 42
0.046719
  0
VERTEX
  8
0
 10
848.727075
 20
121.933857
 42
0.038767
  0
VERTEX
  8
0
 10
857.684680
 20
125.509376
 42
0.039888
  0
VERTEX
  8
0
 10
863.604324
 20
129.033784
 42
0.048958
  0
VERTEX
  8
0
 10
868.462083
 20
133.248050
 42
0.050794
  0
VERTEX
  8
0
 10
872.268242
 20
138.184026
 42
0.048739
  0
VERTEX
  8
0
 10
875.062579
 20
143.852906
 42
0.060957
  0
VERTEX
  8
0
 10
876.612896
 20
150.220918
 42
0.039416
  0
VERTEX
  8
0
 10
876.903390
 20
157.811356
 42
0.039469
  0
VERTEX
  8
0
 10
876.000441
 20
165.335410
 42
0.062110
  0
VERTEX
  8
0
 10
873.941166
 20
171.500000
 42
0.049186
  0
VERTEX
  8
0
 10
870.949623
 20
176.437351
 42
0.041023
  0
VERTEX
  8
0
 10
866.880507
 20
181.029920
 42
0.040068
  0
VERTEX
  8
0
 10
862.005070
 20
185.002138
 42
0.041495
  0
VERTEX
  8
0
 10
856.613151
 20
188.093846
 42
0.043011
  0
VERTEX
  8
0
 10
847.609409
 20
191.397998
 42
0.043671
  0
VERTEX
  8
0
 10
838.218952
 20
193.091854
 42
0.020278
  0
VERTEX
  8
0
 10
823.912213
 20
193.816734
 42
0.002420
  0
VERTEX
  8
0
 10
792.204545
 20
193.982636
 42
0.000000
  0
VERTEX
  8
0
 10
747.909091
 20
194.000000
 42
0.000000
  0
SEQEND
  0
POLYLINE
  8
0
 66
1
 70
1
  0
VERTEX
  8
0
 10
911.000000
 20
146.076725
 42
0.000000
  0
VERTEX
  8
0
 10
911.000000
 20
98.153451
 42
0.000000
  0
VERTEX
  8
0
 10
913.588894
 20
95.076725
 42
0.000000
  0
VERTEX
  8
0
 10
916.177787
 20
92.000000
 42
0.000000
  0
VERTEX
  8
0
 10
928.588894
 20
92.000000
 42
0.000000
  0
VERTEX
  8
0
 10
941.000000
 20
92.000000
 42
0.000000
  0
VERTEX
  8
0
 10
941.000000
 20
140.363636
 42
0.000000
  0
VERTEX
  8
0
 10
941.000000
 20
188.727273
 42
0.000000
  0
VERTEX
  8
0
 10
938.363636
 20
191.363636
 42
0.060389
  0
VERTEX
  8
0
 10
936.413810
 20
192.891852
 42
0.092803
  0
VERTEX
  8
0
 10
934.411477
 20
193.643382
 42
0.039858
  0
VERTEX
  8
0
 10
931.251336
 20
193.942291
 42
0.003658
  0
VERTEX
  8
0
 10
923.363636
 20
194.000000
 42
0.000000
  0
VERTEX
  8
0
 10
911.000000
 20
194.000000
 42
0.000000
  0
SEQEND
  0
POLYLINE
  8
0
 66
1
 70
1
  0
VERTEX
  8
0
 10
988.228960
 20
193.330706
 42
0.098826
  0
VERTEX
  8
0
 10
987.641536
 20
192.946230
 42
0.027510
  0
VERTEX
  8
0
 10
986.896844
 20
192.129407
 42
0.026628
  0
VERTEX
  8
0
 10
986.138585
 20
191.091597
 42
0.025130
  0
VERTEX
  8
0
 10
985.478960
 20
189.959313
 42
0.102363
  0
VERTEX
  8
0
 10
984.656734
 20
187.025346
 42
0.009434
  0
VERTEX
  8
0
 10
984.274598
 20
179.442439
 42
0.006776
  0
VERTEX
  8
0
 10
984.052748
 20
167.072894
 42
0.001096
  0
VERTEX
  8
0
 10
984.000000
 20
143.000000
 42
0.001602
  0
VERTEX
  8
0
 10
984.098089
 20
112.388118
 42
0.020893
  0
VERTEX
  8
0
 10
984.645889
 20
101.029122
 42
0.064485
  0
VERTEX
  8
0
 10
985.920624
 20
95.295309
 42
0.217547
  0
VERTEX
  8
0
 10
988.544802
 20
92.621181
 42
0.088732
  0
VERTEX
  8
0
 10
989.865485
 20
92.367999
 42
0.000326
  0
VERTEX
  8
0
 10
1005.647298
 20
92.182472
 42
0.001706
  0
VERTEX
  8
0
 10
1023.549260
 20
92.044799
 42
0.001070
  0
VERTEX
  8
0
 10
1044.492894
 20
92.000000
 42
0.000000
  0
VERTEX
  8
0
 10
1098.822213
 20
92.000000
 42
0.000000
  0
VERTEX
  8
0
 10
1101.411106
 20
95.076725
 42
0.042751
  0
VERTEX
  8
0
 10
1102.820584
 20
97.076060
 42
0.074502
  0
VERTEX
  8
0
 10
1103.571235
 20
98.956122
 42
0.048367
  0
VERTEX
  8
0
 10
1103.913092
 20
101.482679
 42
0.009458
  0
VERTEX
  8
0
 10
1104.000000
 20
106.076725
 42
0.000000
  0
VERTEX
  8
0
 10
1104.000000
 20
114.000000
 42
0.000000
  0
VERTEX
  8
0
 10
1056.500000
 20
114.000000
 42
0.000000
  0
VERTEX
  8
0
 10
1009.000000
 20
114.000000
 42
0.000000
  0
VERTEX
  8
0
 10
1009.000000
 20
123.500000
 42
0.000000
  0
VERTEX
  8
0
 10
1009.000000
 20
133.000000
 42
0.000000
  0
VERTEX
  8
0
 10
1042.000000
 20
133.000000
 42
0.000000
  0
VERTEX
  8
0
 10
1075.000000
 20
133.000000
 42
0.000000
  0
VERTEX
  8
0
 10
1075.000000
 20
143.000000
 42
0.000000
  0
VERTEX
  8
0
 10
1075.000000
 20
153.000000
 42
0.000000
  0
VERTEX
  8
0
 10
1042.000000
 20
153.000000
 42
0.000000
  0
VERTEX
  8
0
 10
1009.000000
 20
153.000000
 42
0.000000
  0
VERTEX
  8
0
 10
1009.000000
 20
162.000000
 42
0.000000
  0
VERTEX
  8
0
 10
1009.000000
 20
171.000000
 42
0.000000
  0
VERTEX
  8
0
 10
1056.500000
 20
171.000000
 42
0.000000
  0
VERTEX
  8
0
 10
1104.000000
 20
171.000000
 42
0.000000
  0
VERTEX
  8
0
 10
1104.000000
 20
179.576923
 42
0.007195
  0
VERTEX
  8
0
 10
1103.923714
 20
184.878189
 42
0.055088
  0
VERTEX
  8
0
 10
1103.579596
 20
187.340697
 42
0.094048
  0
VERTEX
  8
0
 10
1102.760124
 20
189.097506
 42
0.040372
  0
VERTEX
  8
0
 10
1101.076923
 20
191.076923
 42
0.000000
  0
VERTEX
  8
0
 10
1098.153846
 20
194.000000
 42
0.000000
  0
VERTEX
  8
0
 10
1043.826923
 20
193.921053
 42
0.000878
  0
VERTEX
  8
0
 10
1022.908178
 20
193.853932
 42
0.001413
  0
VERTEX
  8
0
 10
1005.085166
 20
193.715073
 42
0.000216
  0
VERTEX
  8
0
 10
989.279602
 20
193.540408
 42
0.093028
  0
SEQEND
  0
POLYLINE
  8
0
 66
1
 70
1
  0
VERTEX
  8
0
 10
1143.305764
 20
191.587235
 42
0.000000
  0
VERTEX
  8
0
 10
1140.500000
 20
189.174470
 42
0.000000
  0
VERTEX
  8
0
 10
1140.220866
 20
143.698584
 42
0.000000
  0
VERTEX
  8
0
 10
1139.941733
 20
98.222697
 42
0.000000
  0
VERTEX
  8
0
 10
1142.559760
 20
95.111349
 42
0.043338
  0
VERTEX
  8
0
 10
1144.426621
 20
93.247207
 42
0.114094
  0
VERTEX
  8
0
 10
1146.101394
 20
92.394701
 42
0.056118
  0
VERTEX
  8
0
 10
1148.610920
 20
92.062729
 42
0.004851
  0
VERTEX
  8
0
 10
1155.076419
 20
92.000000
 42
0.000000
  0
VERTEX
  8
0
 10
1164.975052
 20
92.000000
 42
0.000000
  0
VERTEX
  8
0
 10
1165.237526
 20
128.065024
 42
0.000000
  0
VERTEX
  8
0
 10
1165.500000
 20
164.130047
 42
0.000000
  0
VERTEX
  8
0
 10
1207.231648
 20
128.065024
 42
0.000000
  0
VERTEX
  8
0
 10
1248.963296
 20
92.000000
 42
0.000000
  0
VERTEX
  8
0
 10
1258.925884
 20
92.000000
 42
0.006064
  0
VERTEX
  8
0
 10
1264.839251
 20
92.071718
 42
0.040662
  0
VERTEX
  8
0
 10
1267.758733
 20
92.380969
 42
0.076046
  0
VERTEX
  8
0
 10
1269.750176
 20
93.082306
 42
0.055044
  0
VERTEX
  8
0
 10
1271.694236
 20
94.413416
 42
0.000000
  0
VERTEX
  8
0
 10
1274.500000
 20
96.826833
 42
0.000000
  0
VERTEX
  8
0
 10
1274.500000
 20
143.000000
 42
0.000000
  0
VERTEX
  8
0
 10
1274.500000
 20
189.173167
 42
0.000000
  0
VERTEX
  8
0
 10
1271.694236
 20
191.586584
 42
0.053633
  0
VERTEX
  8
0
 10
1269.774134
 20
192.909243
 42
0.075522
  0
VERTEX
  8
0
 10
1267.820785
 20
193.611842
 42
0.041946
  0
VERTEX
  8
0
 10
1264.998742
 20
193.925465
 42
0.006709
  0
VERTEX
  8
0
 10
1259.444236
 20
194.000000
 42
0.000000
  0
VERTEX
  8
0
 10
1250.000000
 20
194.000000
 42
0.000000
  0
VERTEX
  8
0
 10
1250.000000
 20
158.000000
 42
-0.001151
  0
VERTEX
  8
0
 10
1249.968212
 20
144.195787
 42
-0.001920
  0
VERTEX
  8
0
 10
1249.870054
 20
132.575000
 42
-0.000149
  0
VERTEX
  8
0
 10
1249.739218
 20
122.179262
 42
-0.410445
  0
VERTEX
  8
0
 10
1249.557632
 20
122.000000
 42
-0.180214
  0
VERTEX
  8
0
 10
1249.240811
 20
122.118025
 42
-0.000042
  0
VERTEX
  8
0
 10
1237.155415
 20
132.575000
 42
-0.000825
  0
VERTEX
  8
0
 10
1223.770991
 20
144.196581
 42
-0.000499
  0
VERTEX
  8
0
 10
1207.958518
 20
158.000000
 42
0.000000
  0
VERTEX
  8
0
 10
1166.801772
 20
194.000000
 42
0.000000
  0
VERTEX
  8
0
 10
1156.456650
 20
194.000000
 42
0.005652
  0
VERTEX
  8
0
 10
1150.278205
 20
193.930161
 42
0.039732
  0
VERTEX
  8
0
 10
1147.286791
 20
193.623889
 42
0.076298
  0
VERTEX
  8
0
 10
1145.266821
 20
192.923523
 42
0.056104
  0
SEQEND
  0
POLYLINE
  8
0
 66
1
 70
1
  0
VERTEX
  8
0
 10
427.965497
 20
143.795790
 42
0.000000
  0
VERTEX
  8
0
 10
418.733717
 20
132.500000
 42
0.000000
  0
VERTEX
  8
0
 10
468.616858
 20
132.000000
 42
-0.001494
  0
VERTEX
  8
0
 10
487.830174
 20
131.750004
 42
-0.002399
  0
VERTEX
  8
0
 10
504.214015
 20
131.409226
 42
-0.000433
  0
VERTEX
  8
0
 10
518.668096
 20
131.026686
 42
-0.137632
  0
VERTEX
  8
0
 10
519.750000
 20
130.690983
 42
-0.170621
  0
VERTEX
  8
0
 10
520.274938
 20
130.012362
 42
-0.034103
  0
VERTEX
  8
0
 10
520.662839
 20
128.507218
 42
-0.029603
  0
VERTEX
  8
0
 10
520.917927
 20
126.474842
 42
-0.016419
  0
VERTEX
  8
0
 10
521.000000
 20
123.976167
 42
-0.012616
  0
VERTEX
  8
0
 10
520.920884
 20
120.841222
 42
-0.055385
  0
VERTEX
  8
0
 10
520.624300
 20
119.016410
 42
-0.097925
  0
VERTEX
  8
0
 10
520.038431
 20
117.854438
 42
-0.104672
  0
VERTEX
  8
0
 10
519.065741
 20
117.035184
 42
-0.117248
  0
VERTEX
  8
0
 10
517.210441
 20
116.545672
 42
-0.001342
  0
VERTEX
  8
0
 10
504.334091
 20
116.264258
 42
-0.003442
  0
VERTEX
  8
0
 10
487.827746
 20
116.061474
 42
-0.001350
  0
VERTEX
  8
0
 10
465.065741
 20
116.000000
 42
0.000000
  0
VERTEX
  8
0
 10
413.000000
 20
116.000000
 42
0.000000
  0
VERTEX
  8
0
 10
413.000000
 20
107.400000
 42
0.007089
  0
VERTEX
  8
0
 10
413.078065
 20
101.893929
 42
0.062015
  0
VERTEX
  8
0
 10
413.447674
 20
99.484679
 42
0.098144
  0
VERTEX
  8
0
 10
414.360430
 20
97.695594
 42
0.029503
  0
VERTEX
  8
0
 10
416.400000
 20
95.400000
 42
0.000000
  0
VERTEX
  8
0
 10
419.800000
 20
92.000000
 42
0.000000
  0
VERTEX
  8
0
 10
472.718499
 20
92.000000
 42
0.001643
  0
VERTEX
  8
0
 10
511.748466
 20
92.128248
 42
0.022880
  0
VERTEX
  8
0
 10
525.802711
 20
92.864288
 42
0.068090
  0
VERTEX
  8
0
 10
533.728841
 20
94.753992
 42
0.091428
  0
VERTEX
  8
0
 10
540.001159
 20
98.620012
 42
0.062328
  0
VERTEX
  8
0
 10
543.682140
 20
102.888825
 42
0.074025
  0
VERTEX
  8
0
 10
545.943788
 20
107.701418
 42
0.054489
  0
VERTEX
  8
0
 10
547.121670
 20
114.077884
 42
0.018567
  0
VERTEX
  8
0
 10
547.467274
 20
123.500000
 42
0.025899
  0
VERTEX
  8
0
 10
546.869814
 20
134.923599
 42
0.074626
  0
VERTEX
  8
0
 10
544.889553
 20
142.582538
 42
0.100796
  0
VERTEX
  8
0
 10
541.178179
 20
147.973779
 42
0.076667
  0
VERTEX
  8
0
 10
535.301610
 20
152.115613
 42
0.000000
  0
VERTEX
  8
0
 10
530.500000
 20
154.500000
 42
0.000000
  0
VERTEX
  8
0
 10
483.848639
 20
154.795790
 42
0.000000
  0
VERTEX
  8
0
 10
437.197278
 20
155.091580
 42
0.000000
  0
SEQEND
  0
POLYLINE
  8
0
 66
1
 70
1
  0
VERTEX
  8
0
 10
16.395094
 20
66.587215
 42
0.053731
  0
VERTEX
  8
0
 10
16.205375
 20
65.871302
 42
0.023057
  0
VERTEX
  8
0
 10
16.101024
 20
64.886669
 42
0.022494
  0
VERTEX
  8
0
 10
16.085525
 20
63.817739
 42
0.027572
  0
VERTEX
  8
0
 10
16.170919
 20
62.822726
 42
0.163281
  0
VERTEX
  8
0
 10
16.839002
 20
61.489230
 42
0.149358
  0
VERTEX
  8
0
 10
18.201012
 20
60.769527
 42
0.039628
  0
VERTEX
  8
0
 10
21.119760
 20
60.446042
 42
0.002522
  0
VERTEX
  8
0
 10
29.728041
 20
60.221128
 42
0.000000
  0
VERTEX
  8
0
 10
42.956082
 20
59.942256
 42
0.000000
  0
VERTEX
  8
0
 10
43.228041
 20
41.221128
 42
0.000000
  0
VERTEX
  8
0
 10
43.500000
 20
22.500000
 42
0.000000
  0
VERTEX
  8
0
 10
47.250000
 20
22.189635
 42
0.000000
  0
VERTEX
  8
0
 10
51.000000
 20
21.879269
 42
0.000000
  0
VERTEX
  8
0
 10
51.000000
 20
40.939635
 42
0.000000
  0
VERTEX
  8
0
 10
51.000000
 20
60.000000
 42
0.000000
  0
VERTEX
  8
0
 10
65.060365
 20
60.000000
 42
0.000000
  0
VERTEX
  8
0
 10
79.120731
 20
60.000000
 42
0.000000
  0
VERTEX
  8
0
 10
78.810365
 20
63.750000
 42
0.000000
  0
VERTEX
  8
0
 10
78.500000
 20
67.500000
 42
0.000000
  0
VERTEX
  8
0
 10
47.724175
 20
67.764489
 42
0.001443
  0
VERTEX
  8
0
 10
30.748519
 20
67.861390
 42
0.010096
  0
VERTEX
  8
0
 10
22.465390
 20
67.717507
 42
0.012383
  0
VERTEX
  8
0
 10
17.482450
 20
67.406542
 42
0.286823
  0
SEQEND
  0
POLYLINE
  8
0
 66
1
 70
1
  0
VERTEX
  8
0
 10
132.448072
 20
66.725273
 42
0.088228
  0
VERTEX
  8
0
 10
132.256726
 20
65.732523
 42
0.001200
  0
VERTEX
  8
0
 10
132.182076
 20
59.516636
 42
0.003356
  0
VERTEX
  8
0
 10
132.161161
 20
52.297949
 42
0.002196
  0
VERTEX
  8
0
 10
132.229457
 20
43.975273
 42
0.000000
  0
VERTEX
  8
0
 10
132.500000
 20
22.500000
 42
0.000000
  0
VERTEX
  8
0
 10
159.430678
 20
22.233326
 42
0.002046
  0
VERTEX
  8
0
 10
178.152798
 20
22.124545
 42
0.035382
  0
VERTEX
  8
0
 10
184.248607
 20
22.545928
 42
0.154068
  0
VERTEX
  8
0
 10
186.916381
 20
23.819782
 42
0.205531
  0
VERTEX
  8
0
 10
187.984687
 20
26.250000
 42
0.345059
  0
VERTEX
  8
0
 10
187.206547
 20
27.261399
 42
0.044441
  0
VERTEX
  8
0
 10
184.321270
 20
27.731930
 42
0.016753
  0
VERTEX
  8
0
 10
178.589576
 20
27.957482
 42
0.001457
  0
VERTEX
  8
0
 10
164.000000
 20
28.000000
 42
0.000000
  0
VERTEX
  8
0
 10
140.000000
 20
28.000000
 42
0.000000
  0
VERTEX
  8
0
 10
140.000000
 20
35.000000
 42
0.000000
  0
VERTEX
  8
0
 10
140.000000
 20
42.000000
 42
0.000000
  0
VERTEX
  8
0
 10
156.500000
 20
42.000000
 42
0.000000
  0
VERTEX
  8
0
 10
173.000000
 20
42.000000
 42
0.000000
  0
VERTEX
  8
0
 10
173.000000
 20
45.000000
 42
0.000000
  0
VERTEX
  8
0
 10
173.000000
 20
48.000000
 42
0.000000
  0
VERTEX
  8
0
 10
156.500000
 20
48.000000
 42
0.000000
  0
VERTEX
  8
0
 10
140.000000
 20
48.000000
 42
0.000000
  0
VERTEX
  8
0
 10
140.000000
 20
54.500000
 42
0.000000
  0
VERTEX
  8
0
 10
140.000000
 20
61.000000
 42
0.000000
  0
VERTEX
  8
0
 10
163.440983
 20
61.000000
 42
0.003019
  0
VERTEX
  8
0
 10
173.726411
 20
61.062104
 42
0.007940
  0
VERTEX
  8
0
 10
181.098149
 20
61.268237
 42
0.003984
  0
VERTEX
  8
0
 10
186.701373
 20
61.558761
 42
0.244041
  0
VERTEX
  8
0
 10
187.535126
 20
62.056835
 42
0.101636
  0
VERTEX
  8
0
 10
187.744926
 20
62.629809
 42
0.034264
  0
VERTEX
  8
0
 10
187.816295
 20
63.520905
 42
0.032431
  0
VERTEX
  8
0
 10
187.761590
 20
64.543929
 42
0.031921
  0
VERTEX
  8
0
 10
187.575091
 20
65.556835
 42
0.000000
  0
VERTEX
  8
0
 10
186.961896
 20
68.000000
 42
0.000000
  0
VERTEX
  8
0
 10
159.949563
 20
68.000000
 42
0.001998
  0
VERTEX
  8
0
 10
146.272081
 20
67.945353
 42
0.009582
  0
VERTEX
  8
0
 10
138.478638
 20
67.733675
 42
0.008254
  0
VERTEX
  8
0
 10
133.366982
 20
67.412105
 42
0.288923
  0
SEQEND
  0
POLYLINE
  8
0
 66
1
 70
1
  0
VERTEX
  8
0
 10
249.239432
 20
66.356882
 42
0.077386
  0
VERTEX
  8
0
 10
244.379745
 20
62.925305
 42
0.079535
  0
VERTEX
  8
0
 10
240.846838
 20
58.207548
 42
0.071973
  0
VERTEX
  8
0
 10
238.722034
 20
52.207165
 42
0.049198
  0
VERTEX
  8
0
 10
238.011154
 20
45.000000
 42
0.046002
  0
VERTEX
  8
0
 10
238.678804
 20
37.758559
 42
0.075530
  0
VERTEX
  8
0
 10
240.696365
 20
31.956485
 42
0.083551
  0
VERTEX
  8
0
 10
244.161713
 20
27.418241
 42
0.070164
  0
VERTEX
  8
0
 10
249.122097
 20
23.937711
 42
0.063633
  0
VERTEX
  8
0
 10
252.171033
 20
22.843210
 42
0.038704
  0
VERTEX
  8
0
 10
255.967898
 20
22.307422
 42
0.016673
  0
VERTEX
  8
0
 10
262.209153
 20
22.123402
 42
0.001919
  0
VERTEX
  8
0
 10
276.246306
 20
22.231560
 42
0.000000
  0
VERTEX
  8
0
 10
299.500000
 20
22.500000
 42
0.000000
  0
VERTEX
  8
0
 10
299.813358
 20
25.750000
 42
0.000000
  0
VERTEX
  8
0
 10
300.126717
 20
29.000000
 42
0.000000
  0
VERTEX
  8
0
 10
278.531240
 20
29.000000
 42
-0.005257
  0
VERTEX
  8
0
 10
263.197842
 20
29.161228
 42
-0.039672
  0
VERTEX
  8
0
 10
255.992509
 20
29.886580
 42
-0.087870
  0
VERTEX
  8
0
 10
251.611298
 20
31.510327
 42
-0.093791
  0
VERTEX
  8
0
 10
248.167900
 20
34.513679
 42
-0.054836
  0
VERTEX
  8
0
 10
247.053474
 20
36.303305
 42
-0.061516
  0
VERTEX
  8
0
 10
246.406826
 20
38.225526
 42
-0.040181
  0
VERTEX
  8
0
 10
246.087660
 20
40.843433
 42
-0.010250
  0
VERTEX
  8
0
 10
246.000000
 20
45.119082
 42
-0.009247
  0
VERTEX
  8
0
 10
246.087184
 20
49.832919
 42
-0.054950
  0
VERTEX
  8
0
 10
246.446889
 20
52.266000
 42
-0.082624
  0
VERTEX
  8
0
 10
247.270753
 20
54.103759
 42
-0.035658
  0
VERTEX
  8
0
 10
248.916025
 20
56.234223
 42
0.000000
  0
VERTEX
  8
0
 10
251.832050
 20
59.500000
 42
0.000000
  0
VERTEX
  8
0
 10
275.666025
 20
60.000000
 42
0.000000
  0
VERTEX
  8
0
 10
299.500000
 20
60.500000
 42
0.000000
  0
VERTEX
  8
0
 10
299.500000
 20
64.000000
 42
0.000000
  0
VERTEX
  8
0
 10
299.500000
 20
67.500000
 42
0.000000
  0
VERTEX
  8
0
 10
276.000000
 20
67.736903
 42
0.002245
  0
VERTEX
  8
0
 10
263.000544
 20
67.809589
 42
0.013157
  0
VERTEX
  8
0
 10
256.172602
 20
67.637415
 42
0.024644
  0
VERTEX
  8
0
 10
251.947304
 20
67.210046
 42
0.077727
  0
SEQEND
  0
POLYLINE
  8
0
 66
1
 70
1
  0
VERTEX
  8
0
 10
355.000000
 20
45.000000
 42
0.000000
  0
VERTEX
  8
0
 10
355.000000
 20
22.000000
 42
0.000000
  0
VERTEX
  8
0
 10
358.500000
 20
22.000000
 42
0.000000
  0
VERTEX
  8
0
 10
362.000000
 20
22.000000
 42
0.000000
  0
VERTEX
  8
0
 10
362.000000
 20
31.500000
 42
0.000000
  0
VERTEX
  8
0
 10
362.000000
 20
41.000000
 42
0.000000
  0
VERTEX
  8
0
 10
386.000000
 20
41.000000
 42
0.000000
  0
VERTEX
  8
0
 10
410.000000
 20
41.000000
 42
0.000000
  0
VERTEX
  8
0
 10
410.000000
 20
31.500000
 42
0.000000
  0
VERTEX
  8
0
 10
410.000000
 20
22.000000
 42
0.000000
  0
VERTEX
  8
0
 10
413.500000
 20
22.000000
 42
0.000000
  0
VERTEX
  8
0
 10
417.000000
 20
22.000000
 42
0.000000
  0
VERTEX
  8
0
 10
417.000000
 20
45.000000
 42
0.000000
  0
VERTEX
  8
0
 10
417.000000
 20
68.000000
 42
0.000000
  0
VERTEX
  8
0
 10
413.500000
 20
68.000000
 42
0.000000
  0
VERTEX
  8
0
 10
410.000000
 20
68.000000
 42
0.000000
  0
VERTEX
  8
0
 10
410.000000
 20
58.000000
 42
0.000000
  0
VERTEX
  8
0
 10
410.000000
 20
48.000000
 42
0.000000
  0
VERTEX
  8
0
 10
386.000000
 20
48.000000
 42
0.000000
  0
VERTEX
  8
0
 10
362.000000
 20
48.000000
 42
0.000000
  0
VERTEX
  8
0
 10
362.000000
 20
58.000000
 42
0.000000
  0
VERTEX
  8
0
 10
362.000000
 20
68.000000
 42
0.000000
  0
VERTEX
  8
0
 10
358.500000
 20
68.000000
 42
0.000000
  0
VERTEX
  8
0
 10
355.000000
 20
68.000000
 42
0.000000
  0
SEQEND
  0
POLYLINE
  8
0
 66
1
 70
1
  0
VERTEX
  8
0
 10
474.606989
 20
66.418213
 42
0.082775
  0
VERTEX
  8
0
 10
474.363521
 20
65.224721
 42
0.001933
  0
VERTEX
  8
0
 10
474.178303
 20
59.474125
 42
0.004232
  0
VERTEX
  8
0
 10
474.044004
 20
52.715855
 42
0.002852
  0
VERTEX
  8
0
 10
474.000000
 20
45.000000
 42
0.002852
  0
VERTEX
  8
0
 10
474.044004
 20
37.284145
 42
0.004232
  0
VERTEX
  8
0
 10
474.178303
 20
30.525875
 42
0.001933
  0
VERTEX
  8
0
 10
474.363521
 20
24.775279
 42
0.082775
  0
VERTEX
  8
0
 10
474.606989
 20
23.581787
 42
0.129372
  0
VERTEX
  8
0
 10
475.088395
 20
22.912745
 42
0.077999
  0
VERTEX
  8
0
 10
475.934625
 20
22.412282
 42
0.060317
  0
VERTEX
  8
0
 10
477.113511
 20
22.101319
 42
0.034367
  0
VERTEX
  8
0
 10
478.585849
 20
22.000000
 42
0.000000
  0
VERTEX
  8
0
 10
481.957720
 20
22.000000
 42
0.000000
  0
VERTEX
  8
0
 10
482.228860
 20
41.325555
 42
0.000000
  0
VERTEX
  8
0
 10
482.500000
 20
60.651110
 42
0.000000
  0
VERTEX
  8
0
 10
504.500000
 20
41.316297
 42
0.000000
  0
VERTEX
  8
0
 10
526.500000
 20
21.981484
 42
0.000000
  0
VERTEX
  8
0
 10
531.500000
 20
22.240742
 42
0.000000
  0
VERTEX
  8
0
 10
536.500000
 20
22.500000
 42
0.000000
  0
VERTEX
  8
0
 10
536.500000
 20
45.000000
 42
0.000000
  0
VERTEX
  8
0
 10
536.500000
 20
67.500000
 42
0.000000
  0
VERTEX
  8
0
 10
532.771800
 20
67.809066
 42
0.000000
  0
VERTEX
  8
0
 10
529.043599
 20
68.118131
 42
0.000000
  0
VERTEX
  8
0
 10
528.771800
 20
48.909880
 42
0.000000
  0
VERTEX
  8
0
 10
528.500000
 20
29.701630
 42
0.000000
  0
VERTEX
  8
0
 10
506.668648
 20
48.850815
 42
0.000000
  0
VERTEX
  8
0
 10
484.837295
 20
68.000000
 42
0.000000
  0
VERTEX
  8
0
 10
480.025636
 20
68.000000
 42
0.018180
  0
VERTEX
  8
0
 10
477.736486
 20
67.916739
 42
0.052877
  0
VERTEX
  8
0
 10
476.180816
 20
67.636277
 42
0.084009
  0
VERTEX
  8
0
 10
475.170929
 20
67.146393
 42
0.147332
  0
SEQEND
  0
POLYLINE
  8
0
 66
1
 70
1
  0
VERTEX
  8
0
 10
601.121329
 20
65.831047
 42
0.037392
  0
VERTEX
  8
0
 10
599.056516
 20
64.609066
 42
0.034136
  0
VERTEX
  8
0
 10
597.129005
 20
63.058719
 42
0.033309
  0
VERTEX
  8
0
 10
595.385926
 20
61.219562
 42
0.031715
  0
VERTEX
  8
0
 10
593.871329
 20
59.136055
 42
0.028625
  0
VERTEX
  8
0
 10
592.255058
 20
56.232526
 42
0.062660
  0
VERTEX
  8
0
 10
591.442512
 20
53.825414
 42
0.042529
  0
VERTEX
  8
0
 10
591.087549
 20
50.762825
 42
0.007596
  0
VERTEX
  8
0
 10
591.000000
 20
45.000000
 42
0.007595
  0
VERTEX
  8
0
 10
591.087655
 20
39.229671
 42
0.042706
  0
VERTEX
  8
0
 10
591.443534
 20
36.168553
 42
0.062776
  0
VERTEX
  8
0
 10
592.259431
 20
33.758956
 42
0.028333
  0
VERTEX
  8
0
 10
593.886584
 20
30.839891
 42
0.070010
  0
VERTEX
  8
0
 10
597.914894
 20
26.105227
 42
0.108833
  0
VERTEX
  8
0
 10
602.577105
 20
23.502106
 42
0.062248
  0
VERTEX
  8
0
 10
609.680197
 20
22.296854
 42
0.010936
  0
VERTEX
  8
0
 10
623.250625
 20
22.000000
 42
0.005318
  0
VERTEX
  8
0
 10
630.342452
 20
22.075426
 42
0.007656
  0
VERTEX
  8
0
 10
636.615448
 20
22.305003
 42
0.005939
  0
VERTEX
  8
0
 10
641.752259
 20
22.633027
 42
0.071342
  0
VERTEX
  8
0
 10
643.684900
 20
23.061334
 42
0.068308
  0
VERTEX
  8
0
 10
646.680112
 20
24.685748
 42
0.034811
  0
VERTEX
  8
0
 10
649.952846
 20
27.458819
 42
0.034754
  0
VERTEX
  8
0
 10
652.832435
 20
30.684421
 42
0.063579
  0
VERTEX
  8
0
 10
654.619242
 20
33.717881
 42
0.054187
  0
VERTEX
  8
0
 10
655.169267
 20
35.514650
 42
0.016755
  0
VERTEX
  8
0
 10
655.607437
 20
38.313628
 42
0.016065
  0
VERTEX
  8
0
 10
655.901869
 20
41.589021
 42
0.014382
  0
VERTEX
  8
0
 10
656.000000
 20
45.000000
 42
0.014382
  0
VERTEX
  8
0
 10
655.901869
 20
48.410979
 42
0.016065
  0
VERTEX
  8
0
 10
655.607437
 20
51.686372
 42
0.016755
  0
VERTEX
  8
0
 10
655.169267
 20
54.485350
 42
0.054187
  0
VERTEX
  8
0
 10
654.619242
 20
56.282119
 42
0.063579
  0
VERTEX
  8
0
 10
652.832435
 20
59.315579
 42
0.034754
  0
VERTEX
  8
0
 10
649.952846
 20
62.541181
 42
0.034811
  0
VERTEX
  8
0
 10
646.680112
 20
65.314252
 42
0.068308
  0
VERTEX
  8
0
 10
643.684900
 20
66.938666
 42
0.071402
  0
VERTEX
  8
0
 10
641.749506
 20
67.367340
 42
0.005931
  0
VERTEX
  8
0
 10
636.600086
 20
67.695022
 42
0.007644
  0
VERTEX
  8
0
 10
630.307638
 20
67.924174
 42
0.005290
  0
VERTEX
  8
0
 10
623.184900
 20
67.999211
 42
0.003009
  0
VERTEX
  8
0
 10
612.679191
 20
67.935519
 42
0.021472
  0
VERTEX
  8
0
 10
607.603206
 20
67.655968
 42
0.043609
  0
VERTEX
  8
0
 10
604.239993
 20
67.026168
 42
0.046871
  0
SEQEND
  0
POLYLINE
  8
0
 66
1
 70
1
  0
VERTEX
  8
0
 10
643.010496
 20
58.334729
 42
-0.077118
  0
VERTEX
  8
0
 10
645.445263
 20
56.335456
 42
-0.093976
  0
VERTEX
  8
0
 10
646.964055
 20
53.812990
 42
-0.066903
  0
VERTEX
  8
0
 10
647.764298
 20
50.250426
 42
-0.021841
  0
VERTEX
  8
0
 10
648.000000
 20
44.857239
 42
-0.029300
  0
VERTEX
  8
0
 10
647.703860
 20
39.808038
 42
-0.062861
  0
VERTEX
  8
0
 10
646.767829
 20
36.027723
 42
-0.079155
  0
VERTEX
  8
0
 10
645.107759
 20
33.170006
 42
-0.077830
  0
VERTEX
  8
0
 10
642.633515
 20
30.950389
 42
-0.131461
  0
VERTEX
  8
0
 10
638.544489
 20
29.620541
 42
-0.007842
  0
VERTEX
  8
0
 10
625.459038
 20
29.131868
 42
-0.010298
  0
VERTEX
  8
0
 10
612.583404
 20
29.118373
 42
-0.077328
  0
VERTEX
  8
0
 10
606.595512
 20
30.170269
 42
-0.069912
  0
VERTEX
  8
0
 10
603.233177
 20
31.869103
 42
-0.085981
  0
VERTEX
  8
0
 10
600.734809
 20
34.335600
 42
-0.079851
  0
VERTEX
  8
0
 10
599.087387
 20
37.653073
 42
-0.051485
  0
VERTEX
  8
0
 10
598.238534
 20
41.869326
 42
-0.030360
  0
VERTEX
  8
0
 10
598.063685
 20
46.849928
 42
-0.056513
  0
VERTEX
  8
0
 10
598.620765
 20
50.845968
 42
-0.067114
  0
VERTEX
  8
0
 10
599.954834
 20
54.133937
 42
-0.066579
  0
VERTEX
  8
0
 10
602.114937
 20
56.961091
 42
0.000000
  0
VERTEX
  8
0
 10
605.153846
 20
60.000000
 42
0.000000
  0
VERTEX
  8
0
 10
622.672631
 20
60.000000
 42
-0.003347
  0
VERTEX
  8
0
 10
632.154297
 20
59.936530
 42
-0.017079
  0
VERTEX
  8
0
 10
637.419729
 20
59.686007
 42
-0.030839
  0
VERTEX
  8
0
 10
640.767917
 20
59.202708
 42
-0.082323
  0
SEQEND
  0
POLYLINE
  8
0
 66
1
 70
1
  0
VERTEX
  8
0
 10
710.000000
 20
44.984181
 42
0.000000
  0
VERTEX
  8
0
 10
710.000000
 20
21.968363
 42
0.000000
  0
VERTEX
  8
0
 10
737.750000
 20
22.234181
 42
0.000000
  0
VERTEX
  8
0
 10
765.500000
 20
22.500000
 42
0.000000
  0
VERTEX
  8
0
 10
765.500000
 20
25.500000
 42
0.000000
  0
VERTEX
  8
0
 10
765.500000
 20
28.500000
 42
0.000000
  0
VERTEX
  8
0
 10
741.883486
 20
28.767784
 42
0.000000
  0
VERTEX
  8
0
 10
718.266973
 20
29.035567
 42
0.000000
  0
VERTEX
  8
0
 10
717.633486
 20
33.657355
 42
-0.021964
  0
VERTEX
  8
0
 10
717.387070
 20
36.319602
 42
-0.003968
  0
VERTEX
  8
0
 10
717.186087
 20
41.286743
 42
-0.004271
  0
VERTEX
  8
0
 10
717.046484
 20
47.111319
 42
-0.003855
  0
VERTEX
  8
0
 10
717.000000
 20
53.139571
 42
0.000000
  0
VERTEX
  8
0
 10
717.000000
 20
68.000000
 42
0.000000
  0
VERTEX
  8
0
 10
713.500000
 20
68.000000
 42
0.000000
  0
VERTEX
  8
0
 10
710.000000
 20
68.000000
 42
0.000000
  0
SEQEND
  0
POLYLINE
  8
0
 66
1
 70
1
  0
VERTEX
  8
0
 10
826.458630
 20
66.120336
 42
0.076388
  0
VERTEX
  8
0
 10
821.415510
 20
62.824519
 42
0.085904
  0
VERTEX
  8
0
 10
817.829870
 20
58.280732
 42
0.076772
  0
VERTEX
  8
0
 10
815.713477
 20
52.362723
 42
0.047587
  0
VERTEX
  8
0
 10
815.011154
 20
45.000000
 42
0.045994
  0
VERTEX
  8
0
 10
815.677897
 20
37.767219
 42
0.075291
  0
VERTEX
  8
0
 10
817.692222
 20
31.964982
 42
0.083379
  0
VERTEX
  8
0
 10
821.147603
 20
27.427354
 42
0.070582
  0
VERTEX
  8
0
 10
826.085953
 20
23.956150
 42
0.057352
  0
VERTEX
  8
0
 10
828.914471
 20
22.900632
 42
0.038408
  0
VERTEX
  8
0
 10
832.323994
 20
22.330069
 42
0.019232
  0
VERTEX
  8
0
 10
837.601357
 20
22.062967
 42
0.003028
  0
VERTEX
  8
0
 10
848.000000
 20
22.000000
 42
0.003028
  0
VERTEX
  8
0
 10
858.398643
 20
22.062967
 42
0.019232
  0
VERTEX
  8
0
 10
863.676006
 20
22.330069
 42
0.038408
  0
VERTEX
  8
0
 10
867.085529
 20
22.900632
 42
0.057352
  0
VERTEX
  8
0
 10
869.914047
 20
23.956150
 42
0.070582
  0
VERTEX
  8
0
 10
874.852397
 20
27.427354
 42
0.083379
  0
VERTEX
  8
0
 10
878.307778
 20
31.964982
 42
0.075291
  0
VERTEX
  8
0
 10
880.322103
 20
37.767219
 42
0.045994
  0
VERTEX
  8
0
 10
880.988846
 20
45.000000
 42
0.045994
  0
VERTEX
  8
0
 10
880.322103
 20
52.232781
 42
0.075291
  0
VERTEX
  8
0
 10
878.307778
 20
58.035018
 42
0.083379
  0
VERTEX
  8
0
 10
874.852397
 20
62.572646
 42
0.070582
  0
VERTEX
  8
0
 10
869.914047
 20
66.043850
 42
0.056888
  0
VERTEX
  8
0
 10
867.097407
 20
67.097904
 42
0.038827
  0
VERTEX
  8
0
 10
863.723508
 20
67.666026
 42
0.019520
  0
VERTEX
  8
0
 10
858.518480
 20
67.927394
 42
0.003093
  0
VERTEX
  8
0
 10
848.289838
 20
67.978038
 42
0.003418
  0
VERTEX
  8
0
 10
838.454397
 20
67.898655
 42
0.017497
  0
VERTEX
  8
0
 10
832.999990
 20
67.626263
 42
0.031796
  0
VERTEX
  8
0
 10
829.374477
 20
67.084031
 42
0.053637
  0
SEQEND
  0
POLYLINE
  8
0
 66
1
 70
1
  0
VERTEX
  8
0
 10
869.600000
 20
56.600000
 42
-0.028289
  0
VERTEX
  8
0
 10
871.611980
 20
54.346493
 42
-0.094388
  0
VERTEX
  8
0
 10
872.530804
 20
52.598931
 42
-0.065176
  0
VERTEX
  8
0
 10
872.913636
 20
50.309279
 42
-0.008876
  0
VERTEX
  8
0
 10
873.000000
 20
45.444391
 42
-0.010482
  0
VERTEX
  8
0
 10
872.907769
 20
41.045293
 42
-0.045544
  0
VERTEX
  8
0
 10
872.562339
 20
38.462441
 42
-0.066284
  0
VERTEX
  8
0
 10
871.825585
 20
36.483201
 42
-0.040743
  0
VERTEX
  8
0
 10
870.480948
 20
34.386134
 42
-0.091387
  0
VERTEX
  8
0
 10
867.461659
 20
31.646226
 42
-0.081933
  0
VERTEX
  8
0
 10
863.549029
 20
30.032618
 42
-0.047217
  0
VERTEX
  8
0
 10
857.633965
 20
29.239470
 42
-0.010711
  0
VERTEX
  8
0
 10
847.500000
 20
29.062019
 42
-0.011802
  0
VERTEX
  8
0
 10
837.672740
 20
29.332493
 42
-0.051488
  0
VERTEX
  8
0
 10
831.930265
 20
30.223920
 42
-0.088650
  0
VERTEX
  8
0
 10
828.157066
 20
31.971441
 42
-0.092334
  0
VERTEX
  8
0
 10
825.284628
 20
34.897883
 42
-0.095483
  0
VERTEX
  8
0
 10
823.649204
 20
38.749360
 42
-0.042472
  0
VERTEX
  8
0
 10
822.951771
 20
44.243385
 42
-0.042440
  0
VERTEX
  8
0
 10
823.194609
 20
49.828250
 42
-0.087464
  0
VERTEX
  8
0
 10
824.494289
 20
53.988956
 42
-0.082439
  0
VERTEX
  8
0
 10
827.024112
 20
57.374346
 42
-0.130082
  0
VERTEX
  8
0
 10
830.177747
 20
59.121101
 42
-0.056027
  0
VERTEX
  8
0
 10
835.548967
 20
59.851597
 42
-0.005809
  0
VERTEX
  8
0
 10
848.322506
 20
60.000000
 42
0.000000
  0
VERTEX
  8
0
 10
866.200000
 20
60.000000
 42
0.000000
  0
SEQEND
  0
POLYLINE
  8
0
 66
1
 70
1
  0
VERTEX
  8
0
 10
944.500000
 20
66.348528
 42
0.061297
  0
VERTEX
  8
0
 10
939.220064
 20
62.656334
 42
0.086614
  0
VERTEX
  8
0
 10
935.685038
 20
58.151104
 42
0.079492
  0
VERTEX
  8
0
 10
933.695093
 20
52.413863
 42
0.043831
  0
VERTEX
  8
0
 10
933.043924
 20
45.000000
 42
0.033199
  0
VERTEX
  8
0
 10
933.450037
 20
38.890408
 42
0.059628
  0
VERTEX
  8
0
 10
934.700638
 20
34.030450
 42
0.066534
  0
VERTEX
  8
0
 10
936.940292
 20
29.968057
 42
0.053436
  0
VERTEX
  8
0
 10
940.321639
 20
26.290747
 42
0.030468
  0
VERTEX
  8
0
 10
941.953487
 20
25.025264
 42
0.024388
  0
VERTEX
  8
0
 10
943.850249
 20
23.862524
 42
0.025010
  0
VERTEX
  8
0
 10
945.716945
 20
22.958143
 42
0.055612
  0
VERTEX
  8
0
 10
947.228619
 20
22.506979
 42
0.039049
  0
VERTEX
  8
0
 10
949.416277
 20
22.285557
 42
0.002620
  0
VERTEX
  8
0
 10
955.707782
 20
22.174989
 42
0.003758
  0
VERTEX
  8
0
 10
963.217991
 20
22.138824
 42
0.002805
  0
VERTEX
  8
0
 10
971.500000
 20
22.207655
 42
0.000000
  0
VERTEX
  8
0
 10
992.500000
 20
22.500000
 42
0.000000
  0
VERTEX
  8
0
 10
992.779877
 20
35.250000
 42
0.000000
  0
VERTEX
  8
0
 10
993.059754
 20
48.000000
 42
0.000000
  0
VERTEX
  8
0
 10
978.729877
 20
48.000000
 42
0.006416
  0
VERTEX
  8
0
 10
969.082125
 20
47.876185
 42
0.055131
  0
VERTEX
  8
0
 10
964.815631
 20
47.293142
 42
0.161216
  0
VERTEX
  8
0
 10
962.786842
 20
46.005178
 42
0.173064
  0
VERTEX
  8
0
 10
962.000000
 20
43.800000
 42
0.250278
  0
VERTEX
  8
0
 10
962.518679
 20
42.828702
 42
0.110685
  0
VERTEX
  8
0
 10
963.916667
 20
42.287500
 42
0.033900
  0
VERTEX
  8
0
 10
966.867811
 20
42.047586
 42
0.003336
  0
VERTEX
  8
0
 10
974.000000
 20
42.000000
 42
0.000000
  0
VERTEX
  8
0
 10
986.000000
 20
42.000000
 42
0.000000
  0
VERTEX
  8
0
 10
986.000000
 20
35.500000
 42
0.000000
  0
VERTEX
  8
0
 10
986.000000
 20
29.000000
 42
0.000000
  0
VERTEX
  8
0
 10
968.967881
 20
29.000000
 42
-0.007772
  0
VERTEX
  8
0
 10
956.843839
 20
29.188461
 42
-0.044894
  0
VERTEX
  8
0
 10
950.487326
 20
29.960174
 42
-0.086602
  0
VERTEX
  8
0
 10
946.423799
 20
31.598839
 42
-0.087268
  0
VERTEX
  8
0
 10
943.167900
 20
34.513679
 42
-0.055151
  0
VERTEX
  8
0
 10
942.050686
 20
36.310292
 42
-0.061733
  0
VERTEX
  8
0
 10
941.404546
 20
38.241775
 42
-0.039931
  0
VERTEX
  8
0
 10
941.086758
 20
40.884037
 42
-0.009969
  0
VERTEX
  8
0
 10
941.000000
 20
45.234859
 42
-0.008373
  0
VERTEX
  8
0
 10
941.084122
 20
50.258154
 42
-0.064388
  0
VERTEX
  8
0
 10
941.463430
 20
52.577758
 42
-0.095394
  0
VERTEX
  8
0
 10
942.380511
 20
54.335442
 42
-0.028579
  0
VERTEX
  8
0
 10
944.400000
 20
56.600000
 42
0.000000
  0
VERTEX
  8
0
 10
947.800000
 20
60.000000
 42
0.000000
  0
VERTEX
  8
0
 10
970.460365
 20
60.000000
 42
0.000000
  0
VERTEX
  8
0
 10
993.120731
 20
60.000000
 42
0.000000
  0
VERTEX
  8
0
 10
992.810365
 20
63.750000
 42
0.000000
  0
VERTEX
  8
0
 10
992.500000
 20
67.500000
 42
0.000000
  0
VERTEX
  8
0
 10
970.000000
 20
67.720124
 42
0.002378
  0
VERTEX
  8
0
 10
957.659114
 20
67.782152
 42
0.013502
  0
VERTEX
  8
0
 10
951.091567
 20
67.606537
 42
0.024731
  0
VERTEX
  8
0
 10
947.022853
 20
67.185199
 42
0.083988
  0
SEQEND
  0
POLYLINE
  8
0
 66
1
 70
1
  0
VERTEX
  8
0
 10
1053.231226
 20
45.250000
 42
0.000000
  0
VERTEX
  8
0
 10
1053.500000
 20
22.500000
 42
0.000000
  0
VERTEX
  8
0
 10
1057.250000
 20
22.189635
 42
0.000000
  0
VERTEX
  8
0
 10
1061.000000
 20
21.879269
 42
0.000000
  0
VERTEX
  8
0
 10
1061.000000
 20
43.357847
 42
0.002635
  0
VERTEX
  8
0
 10
1060.956021
 20
51.703263
 42
0.003944
  0
VERTEX
  8
0
 10
1060.821697
 20
58.991743
 42
0.001689
  0
VERTEX
  8
0
 10
1060.636892
 20
65.213505
 42
0.083527
  0
VERTEX
  8
0
 10
1060.393011
 20
66.418213
 42
0.129845
  0
VERTEX
  8
0
 10
1059.909003
 20
67.089554
 42
0.078390
  0
VERTEX
  8
0
 10
1059.058338
 20
67.589617
 42
0.060196
  0
VERTEX
  8
0
 10
1057.868829
 20
67.899349
 42
0.033634
  0
VERTEX
  8
0
 10
1056.374237
 20
68.000000
 42
0.000000
  0
VERTEX
  8
0
 10
1052.962451
 20
68.000000
 42
0.000000
  0
SEQEND
  0
POLYLINE
  8
0
 66
1
 70
1
  0
VERTEX
  8
0
 10
1114.448072
 20
66.725273
 42
0.088228
  0
VERTEX
  8
0
 10
1114.256726
 20
65.732523
 42
0.001200
  0
VERTEX
  8
0
 10
1114.182076
 20
59.516636
 42
0.003356
  0
VERTEX
  8
0
 10
1114.161161
 20
52.297949
 42
0.002196
  0
VERTEX
  8
0
 10
1114.229457
 20
43.975273
 42
0.000000
  0
VERTEX
  8
0
 10
1114.500000
 20
22.500000
 42
0.000000
  0
VERTEX
  8
0
 10
1141.750000
 20
22.233928
 42
0.000000
  0
VERTEX
  8
0
 10
1169.000000
 20
21.967856
 42
0.000000
  0
VERTEX
  8
0
 10
1169.000000
 20
24.983928
 42
0.000000
  0
VERTEX
  8
0
 10
1169.000000
 20
28.000000
 42
0.000000
  0
VERTEX
  8
0
 10
1145.500000
 20
28.000000
 42
0.000000
  0
VERTEX
  8
0
 10
1122.000000
 20
28.000000
 42
0.000000
  0
VERTEX
  8
0
 10
1122.000000
 20
35.000000
 42
0.000000
  0
VERTEX
  8
0
 10
1122.000000
 20
42.000000
 42
0.000000
  0
VERTEX
  8
0
 10
1138.500000
 20
42.000000
 42
0.000000
  0
VERTEX
  8
0
 10
1155.000000
 20
42.000000
 42
0.000000
  0
VERTEX
  8
0
 10
1155.000000
 20
45.000000
 42
0.000000
  0
VERTEX
  8
0
 10
1155.000000
 20
48.000000
 42
0.000000
  0
VERTEX
  8
0
 10
1138.500000
 20
48.000000
 42
0.000000
  0
VERTEX
  8
0
 10
1122.000000
 20
48.000000
 42
0.000000
  0
VERTEX
  8
0
 10
1122.000000
 20
54.500000
 42
0.000000
  0
VERTEX
  8
0
 10
1122.000000
 20
61.000000
 42
0.000000
  0
VERTEX
  8
0
 10
1145.500000
 20
61.000000
 42
0.000000
  0
VERTEX
  8
0
 10
1169.000000
 20
61.000000
 42
0.000000
  0
VERTEX
  8
0
 10
1169.000000
 20
64.500000
 42
0.000000
  0
VERTEX
  8
0
 10
1169.000000
 20
68.000000
 42
0.000000
  0
VERTEX
  8
0
 10
1141.968615
 20
68.000000
 42
0.001996
  0
VERTEX
  8
0
 10
1128.281091
 20
67.945358
 42
0.009576
  0
VERTEX
  8
0
 10
1120.482379
 20
67.733687
 42
0.008245
  0
VERTEX
  8
0
 10
1115.367111
 20
67.412151
 42
0.288942
  0
SEQEND
  0
POLYLINE
  8
0
 66
1
 70
1
  0
VERTEX
  8
0
 10
1223.302360
 20
66.988207
 42
0.124619
  0
VERTEX
  8
0
 10
1220.865909
 20
65.208751
 42
0.086288
  0
VERTEX
  8
0
 10
1219.162848
 20
62.233482
 42
0.065811
  0
VERTEX
  8
0
 10
1218.252734
 20
58.091699
 42
0.035344
  0
VERTEX
  8
0
 10
1218.178247
 20
52.851249
 42
0.053068
  0
VERTEX
  8
0
 10
1219.232709
 20
46.418703
 42
0.236187
  0
VERTEX
  8
0
 10
1221.716984
 20
43.656033
 42
0.084683
  0
VERTEX
  8
0
 10
1227.069514
 20
42.539936
 42
0.003883
  0
VERTEX
  8
0
 10
1245.783318
 20
42.000000
 42
-0.003081
  0
VERTEX
  8
0
 10
1254.963544
 20
41.749865
 42
-0.004745
  0
VERTEX
  8
0
 10
1262.900412
 20
41.409226
 42
-0.001690
  0
VERTEX
  8
0
 10
1269.720314
 20
41.028533
 42
-0.129535
  0
VERTEX
  8
0
 10
1270.750000
 20
40.690983
 42
-0.157120
  0
VERTEX
  8
0
 10
1271.234006
 20
40.098165
 42
-0.034448
  0
VERTEX
  8
0
 10
1271.633164
 20
38.826424
 42
-0.032626
  0
VERTEX
  8
0
 10
1271.908339
 20
37.223705
 42
-0.026208
  0
VERTEX
  8
0
 10
1272.000000
 20
35.476167
 42
-0.021849
  0
VERTEX
  8
0
 10
1271.903994
 20
33.280148
 42
-0.063631
  0
VERTEX
  8
0
 10
1271.581504
 20
31.799634
 42
-0.092210
  0
VERTEX
  8
0
 10
1270.987408
 20
30.775050
 42
-0.092773
  0
VERTEX
  8
0
 10
1270.065741
 20
30.035184
 42
-0.109894
  0
VERTEX
  8
0
 10
1268.442377
 20
29.581554
 42
-0.003837
  0
VERTEX
  8
0
 10
1261.867929
 20
29.279542
 42
-0.006370
  0
VERTEX
  8
0
 10
1253.538666
 20
29.067173
 42
-0.003188
  0
VERTEX
  8
0
 10
1243.002383
 20
29.000000
 42
0.000000
  0
VERTEX
  8
0
 10
1217.873283
 20
29.000000
 42
0.000000
  0
VERTEX
  8
0
 10
1218.186642
 20
25.750000
 42
0.000000
  0
VERTEX
  8
0
 10
1218.500000
 20
22.500000
 42
0.000000
  0
VERTEX
  8
0
 10
1245.768515
 20
22.233894
 42
0.003541
  0
VERTEX
  8
0
 10
1266.563489
 20
22.178221
 42
0.049424
  0
VERTEX
  8
0
 10
1274.006526
 20
22.948871
 42
0.157831
  0
VERTEX
  8
0
 10
1277.772891
 20
25.080508
 42
0.120385
  0
VERTEX
  8
0
 10
1280.071080
 20
29.256678
 42
0.052893
  0
VERTEX
  8
0
 10
1280.819163
 20
33.958685
 42
0.051230
  0
VERTEX
  8
0
 10
1280.577279
 20
38.765206
 42
0.055317
  0
VERTEX
  8
0
 10
1279.437248
 20
42.996610
 42
0.103193
  0
VERTEX
  8
0
 10
1277.502164
 20
45.954361
 42
0.000000
  0
VERTEX
  8
0
 10
1274.958506
 20
48.500000
 42
0.000000
  0
VERTEX
  8
0
 10
1250.729253
 20
49.000000
 42
0.000000
  0
VERTEX
  8
0
 10
1226.500000
 20
49.500000
 42
0.000000
  0
VERTEX
  8
0
 10
1226.500000
 20
54.500000
 42
0.000000
  0
VERTEX
  8
0
 10
1226.500000
 20
59.500000
 42
0.000000
  0
VERTEX
  8
0
 10
1253.500000
 20
60.000000
 42
0.000000
  0
VERTEX
  8
0
 10
1280.500000
 20
60.500000
 42
0.000000
  0
VERTEX
  8
0
 10
1280.826764
 20
62.805042
 42
0.198172
  0
VERTEX
  8
0
 10
1280.085678
 20
65.701906
 42
0.190281
  0
VERTEX
  8
0
 10
1277.501597
 20
67.296915
 42
0.042281
  0
VERTEX
  8
0
 10
1271.168013
 20
67.883959
 42
0.002573
  0
VERTEX
  8
0
 10
1252.127555
 20
67.936614
 42
0.003078
  0
VERTEX
  8
0
 10
1241.764910
 20
67.848147
 42
0.004549
  0
VERTEX
  8
0
 10
1232.676288
 20
67.631872
 42
0.002147
  0
VERTEX
  8
0
 10
1224.957439
 20
67.344717
 42
0.085549
  0
SEQEND
  0
ENDSEC
  0
EOF
